<?xml version="1.0" encoding="utf-8"?>
<!-- Generator: Adobe Illustrator 26.3.1, SVG Export Plug-In . SVG Version: 6.00 Build 0)  -->
<svg version="1.1" id="Calque_1" xmlns="http://www.w3.org/2000/svg" xmlns:xlink="http://www.w3.org/1999/xlink" x="0px" y="0px"
	 viewBox="0 0 86.5 32" style="enable-background:new 0 0 86.5 32;" xml:space="preserve">
<style type="text/css">
	.st0{enable-background:new    ;}
	.st1{fill:#99A3AD;}
	.st2{fill:#FDBF09;}
	.st3{fill:#00875A;}
</style>
<g class="st0">
	<path class="st1" d="M18.8,24.4c-0.7,0-1.3,0.6-1.3,1.6c0,1,0.5,1.6,1.3,1.6c0.7,0,1.1-0.4,1.1-1.1h-1V26h1.7v0.5
		c0,1.1-0.7,1.7-1.8,1.7c-1.1,0-1.9-0.8-1.9-2.2c0-1.3,0.8-2.2,1.9-2.2c0.9,0,1.6,0.6,1.8,1.4h-0.7C19.8,24.7,19.4,24.4,18.8,24.4z"
		/>
	<path class="st1" d="M21.4,23.9h2.6v0.5h-2v1.3h1.9v0.5h-1.9v1.3h2v0.5h-2.7V23.9z"/>
	<path class="st1" d="M26.4,24.4c-0.5,0-0.8,0.3-0.8,0.6c0,0.4,0.4,0.6,0.8,0.6l0.4,0.1c0.5,0.1,1.2,0.4,1.2,1.2
		c0,0.7-0.6,1.2-1.6,1.2c-0.9,0-1.5-0.5-1.6-1.2h0.6c0,0.5,0.4,0.7,0.9,0.7c0.5,0,0.9-0.3,0.9-0.7c0-0.4-0.3-0.5-0.8-0.6L26,26.2
		c-0.7-0.2-1.1-0.5-1.1-1.1c0-0.7,0.6-1.2,1.5-1.2c0.9,0,1.5,0.5,1.5,1.2h-0.6C27.2,24.6,26.8,24.4,26.4,24.4z"/>
	<path class="st1" d="M28.5,23.9h3.3v0.5h-1.3v3.7h-0.6v-3.7h-1.3V23.9z"/>
	<path class="st1" d="M33.1,28.1h-0.6v-4.2h0.6V28.1z"/>
	<path class="st1" d="M35.8,28.2c-1.1,0-1.9-0.8-1.9-2.2c0-1.3,0.8-2.2,1.9-2.2c1.1,0,1.9,0.8,1.9,2.2S36.9,28.2,35.8,28.2z
		 M35.8,24.4c-0.7,0-1.3,0.6-1.3,1.6s0.5,1.6,1.3,1.6c0.7,0,1.3-0.6,1.3-1.6S36.5,24.4,35.8,24.4z"/>
	<path class="st1" d="M41.9,28.1h-0.6L39.1,25h0v3.1h-0.6v-4.2H39l2.1,3.1h0v-3.1h0.6V28.1z"/>
	<path class="st1" d="M47.2,25.3c-0.1-0.5-0.6-0.8-1.1-0.8c-0.7,0-1.3,0.6-1.3,1.6c0,1,0.5,1.6,1.3,1.6c0.5,0,1-0.3,1.1-0.8l0.6,0
		c-0.1,0.8-0.8,1.4-1.7,1.4c-1.1,0-1.9-0.8-1.9-2.2s0.8-2.2,1.9-2.2c0.9,0,1.6,0.5,1.7,1.4H47.2z"/>
	<path class="st1" d="M50.4,28.2c-1.1,0-1.9-0.8-1.9-2.2c0-1.3,0.8-2.2,1.9-2.2c1.1,0,1.9,0.8,1.9,2.2S51.4,28.2,50.4,28.2z
		 M50.4,24.4c-0.7,0-1.3,0.6-1.3,1.6s0.5,1.6,1.3,1.6c0.7,0,1.3-0.6,1.3-1.6S51.1,24.4,50.4,24.4z"/>
	<path class="st1" d="M53.8,23.9l1.3,3.3h0l1.3-3.3h0.8v4.2h-0.6v-3.1h0l-1.2,3h-0.5l-1.2-3h0v3.1H53v-4.2H53.8z"/>
	<path class="st1" d="M59,23.9l1.3,3.3h0l1.3-3.3h0.8v4.2h-0.6v-3.1h0l-1.2,3h-0.5l-1.2-3h0v3.1h-0.6v-4.2H59z"/>
	<path class="st1" d="M63.5,23.9h2.6v0.5h-2v1.3H66v0.5h-1.9v1.3h2v0.5h-2.7V23.9z"/>
	<path class="st1" d="M67,23.9h1.5c1,0,1.5,0.5,1.5,1.3c0,0.6-0.3,1-0.8,1.2l0.9,1.7h-0.7l-0.9-1.6c0,0,0,0,0,0h-0.9v1.6H67V23.9z
		 M68.4,26c0.6,0,0.9-0.3,0.9-0.8c0-0.5-0.3-0.8-0.9-0.8h-0.8V26H68.4z"/>
	<path class="st1" d="M73.6,25.3c-0.1-0.5-0.6-0.8-1.1-0.8c-0.7,0-1.3,0.6-1.3,1.6c0,1,0.5,1.6,1.3,1.6c0.5,0,1-0.3,1.1-0.8l0.6,0
		c-0.1,0.8-0.8,1.4-1.7,1.4c-1.1,0-1.9-0.8-1.9-2.2s0.8-2.2,1.9-2.2c0.9,0,1.6,0.5,1.7,1.4H73.6z"/>
	<path class="st1" d="M75.6,28.1H75v-4.2h0.6V28.1z"/>
	<path class="st1" d="M76.2,28.1l1.5-4.2h0.7l1.5,4.2h-0.7L78.9,27h-1.6l-0.4,1.1H76.2z M78.7,26.5l-0.6-1.8h0l-0.6,1.8H78.7z"/>
	<path class="st1" d="M80.6,23.9h0.6v3.7h1.9v0.5h-2.5V23.9z"/>
	<path class="st1" d="M83.9,23.9h2.6v0.5h-2v1.3h1.9v0.5h-1.9v1.3h2v0.5h-2.7V23.9z"/>
</g>
<path class="st2" d="M1.6,3H0.2C0.1,3,0,3.1,0,3.1v1.7c0,0.8,0.7,1.5,1.5,1.5H3c0.1,0,0.1-0.1,0.1-0.1V4.6C3.2,3.7,2.5,3,1.6,3z"/>
<g id="vw2wVO_00000048483100520200173050000004361800826330098056_">
	<g>
		<path class="st3" d="M7,7.2c-1.3,0-2.5,0.3-3.5,0.9c0.2,1.2,0.4,2.3,0.6,3.5c0.7-0.9,1.8-1.4,3-1.4c2.1,0,3.9,1.7,3.9,3.9
			c0,0.4-0.1,0.8-0.2,1.2c0,1.6,0,3.1,0,4.7c1.8-1.1,3.2-3.1,3.3-5.8C14.1,10.5,11.1,7.2,7,7.2z M7,18.1c-2.2,0-3.9-1.7-3.9-3.9
			c0-0.3,0-0.5,0.1-0.8l0,0c0-1,0-1.9,0-2.9c0-0.7-0.2-1.3-0.5-1.8C1.1,10,0.1,12,0.1,14.3c0,3.8,3.1,6.8,7,6.8
			c0.9,0,1.8-0.2,2.7-0.6c0.2-0.2,0.3-0.4,0.3-0.7c0-1,0-2.1,0-3.2C9.4,17.5,8.3,18.1,7,18.1z"/>
		<path class="st3" d="M14,20.4c0,0.5,0,1-0.1,1.4c-0.3,3.2-2.4,5.5-5.6,6.1c-3.1,0.6-6.1-0.9-7.5-3.6c0.5-0.3,0.9-0.7,1.5-1
			c0.4-0.2,0.9-0.2,1.3,0c0.2,0.1,0.4,0.2,0.6,0.4C5.3,25,6.6,25.3,8,24.9c1.5-0.4,2.4-1.3,2.8-2.8c0.2-0.6,0.4-1,0.9-1.4
			c0.9-0.6,1.6-1.5,2.1-2.5l0.1-0.1c0,0,0,0,0.1,0C14,18.9,14,19.7,14,20.4z"/>
	</g>
</g>
<g id="jp4N78_00000156569396838034055250000008089193609063746726_">
	<g>
		<path class="st3" d="M14,14.3c0,2.7-1.5,4.6-3.3,5.7c0.1-1.6,0.1-3.1,0-4.7c0.1-0.4,0.2-0.8,0.2-1.2c0-2.2-1.7-3.9-3.9-3.9
			c-1.2,0-2.3,0.5-3,1.4c-0.2-1.2-0.4-2.3-0.6-3.5c1-0.6,2.2-0.9,3.5-0.9C11.1,7.2,14.1,10.5,14,14.3z"/>
		<path class="st3" d="M10.1,19.8c0,0.3-0.1,0.6-0.3,0.7c-0.1,0.1-0.3,0.2-0.6,0.3c-3.9,1.3-8.2-1.2-9-5.2C0.1,15,0,14.4,0,13.7
			c0-1.8,0-3.7,0-5.5c0-0.3,0-0.6,0-1c1.3,0.2,2.2,0.7,2.7,1.5C3,9.2,3.2,9.8,3.2,10.5c0,1,0,1.9,0,2.9l0,0
			c-0.1,0.3-0.1,0.5-0.1,0.8c0,2.2,1.7,3.9,3.9,3.9c1.2,0,2.3-0.6,3-1.4C10.1,17.8,10.1,18.8,10.1,19.8z"/>
	</g>
</g>
<path class="st3" d="M28.6,14.3c0-1.3-0.3-2.4-0.9-3.4s-1.4-1.7-2.4-2.3c-1-0.5-2-0.8-3.1-0.8C21,7.8,20,8.1,19,8.7
	c-1,0.6-1.8,1.4-2.4,2.3c-0.6,1-0.9,2.1-0.9,3.2c0,1.2,0.3,2.2,0.9,3.2s1.4,1.8,2.4,2.4s2.1,0.9,3.2,0.9c1,0,1.9-0.2,2.7-0.6
	c0.8-0.4,1.6-1,2.2-1.7s1-1.5,1.3-2.4h-3c-0.3,0.7-0.7,1.2-1.3,1.6c-0.6,0.4-1.2,0.6-1.9,0.6c-0.8,0-1.6-0.3-2.3-0.9
	c-0.7-0.6-1.1-1.3-1.3-2.2h9.9C28.6,15,28.6,14.7,28.6,14.3z M18.8,12.9c0.3-0.8,0.7-1.4,1.3-1.9c0.6-0.5,1.3-0.7,2.1-0.7
	c0.8,0,1.5,0.2,2.1,0.7s1,1.1,1.3,1.9H18.8z"/>
<path class="st3" d="M38.8,14.8c-0.4-0.5-0.8-0.8-1.4-1c-0.5-0.2-1.2-0.4-2.1-0.7c-0.6-0.2-1.1-0.3-1.4-0.4
	c-0.3-0.1-0.6-0.3-0.9-0.5c-0.2-0.2-0.3-0.5-0.3-0.8s0.2-0.6,0.5-0.8s0.7-0.3,1.2-0.3s0.9,0.1,1.2,0.4c0.3,0.3,0.5,0.6,0.5,1H39
	c0-0.7-0.2-1.3-0.6-1.9c-0.4-0.6-0.9-1.1-1.6-1.4c-0.7-0.3-1.5-0.5-2.3-0.5s-1.6,0.2-2.3,0.5S31,9.1,30.6,9.7
	c-0.4,0.5-0.6,1.2-0.6,1.8c0,0.8,0.2,1.5,0.6,2s0.8,0.9,1.4,1.1c0.5,0.2,1.2,0.4,2,0.6c0.6,0.2,1.1,0.3,1.4,0.4
	c0.3,0.1,0.6,0.3,0.8,0.5s0.3,0.5,0.3,0.9s-0.2,0.7-0.5,1s-0.8,0.4-1.4,0.4c-0.8,0-1.3-0.2-1.7-0.6s-0.6-0.9-0.6-1.6h-2.7
	c0,0.9,0.2,1.7,0.6,2.4c0.4,0.7,1,1.3,1.7,1.7c0.7,0.4,1.6,0.6,2.5,0.6c0.9,0,1.8-0.2,2.5-0.5c0.8-0.4,1.3-0.9,1.8-1.5
	c0.4-0.6,0.6-1.3,0.6-2.1C39.3,15.9,39.1,15.2,38.8,14.8z"/>
<path class="st3" d="M48.9,17.5c-0.6,0.5-1.4,0.8-2.2,0.8c-0.6,0-1.2-0.2-1.8-0.5c-0.6-0.4-1-0.8-1.3-1.4s-0.5-1.3-0.5-2
	s0.2-1.4,0.5-2s0.8-1.1,1.3-1.4c0.6-0.3,1.2-0.5,1.8-0.5c0.9,0,1.6,0.3,2.3,0.9c0.7,0.6,1.1,1.3,1.2,2.3h2.9c-0.1-1-0.5-2-1.1-2.9
	c-0.6-0.9-1.4-1.5-2.3-2c-0.9-0.5-1.9-0.7-3-0.7c-1.2,0-2.2,0.3-3.2,0.9c-1,0.6-1.8,1.4-2.4,2.3c-0.6,1-0.9,2.1-0.9,3.2
	c0,1.2,0.3,2.2,0.9,3.2c0.6,1,1.4,1.8,2.4,2.4s2.1,0.9,3.2,0.9c1,0,2-0.2,2.9-0.7s1.7-1.1,2.3-1.9s1-1.7,1.1-2.7h-2.9
	C50,16.2,49.6,16.9,48.9,17.5z"/>
<path class="st3" d="M66.3,11c-0.6-1-1.4-1.8-2.4-2.3c-1-0.6-2.1-0.9-3.2-0.9c-1.2,0-2.2,0.3-3.2,0.9s-1.8,1.4-2.4,2.3
	c-0.6,1-0.9,2.1-0.9,3.2c0,1.2,0.3,2.2,0.9,3.2c0.6,1,1.4,1.8,2.4,2.4s2.1,0.9,3.2,0.9c1.2,0,2.2-0.3,3.2-0.9s1.8-1.4,2.4-2.4
	s0.9-2.1,0.9-3.2C67.2,13.1,66.9,12,66.3,11z M63.8,16.3c-0.3,0.6-0.8,1.1-1.3,1.4c-0.6,0.4-1.2,0.5-1.8,0.5s-1.2-0.2-1.8-0.5
	c-0.6-0.4-1-0.8-1.3-1.4s-0.5-1.3-0.5-2s0.2-1.4,0.5-2s0.8-1.1,1.3-1.4c0.6-0.3,1.2-0.5,1.8-0.5s1.2,0.2,1.8,0.5s1,0.8,1.3,1.4
	c0.3,0.6,0.5,1.3,0.5,2C64.3,15,64.2,15.7,63.8,16.3z"/>
<path class="st3" d="M84.7,9.1c-0.8-0.9-2-1.3-3.5-1.3c-1.6,0-2.8,0.5-3.8,1.6c-1-1-2.3-1.6-3.8-1.6c-1.6,0-2.7,0.4-3.6,1.3
	c-0.8,0.9-1.3,2.1-1.3,3.7v7.6h2.7v-7.9c0-0.7,0.2-1.2,0.6-1.6c0.4-0.4,1-0.6,1.6-0.6c0.7,0,1.2,0.2,1.6,0.6c0.4,0.4,0.6,1,0.6,1.6
	v7.9h2.7v-7.9c0-0.7,0.2-1.2,0.6-1.6c0.4-0.4,1-0.6,1.6-0.6c0.7,0,1.2,0.2,1.6,0.6c0.4,0.4,0.6,1,0.6,1.6v7.9H86v-7.6
	C86,11.2,85.6,9.9,84.7,9.1z"/>
</svg>
