<?xml version="1.0" encoding="utf-8"?>
<!-- Generator: Adobe Illustrator 26.3.1, SVG Export Plug-In . SVG Version: 6.00 Build 0)  -->
<svg version="1.1" id="Layer_1" xmlns="http://www.w3.org/2000/svg" xmlns:xlink="http://www.w3.org/1999/xlink" x="0px" y="0px"
	 viewBox="0 0 225 225" style="enable-background:new 0 0 225 225;" xml:space="preserve">
<style type="text/css">
	.st0{fill:#EAE6E4;}
	.st1{fill:#FDC41F;}
	.st2{fill:#04764E;}
	.st3{fill:#FFFFFF;}
</style>
<path class="st0" d="M183.8,224.9H42.2C19.5,224.9,1,206.4,1,183.6V42.1C1,19.4,19.5,0.9,42.2,0.9h141.5c22.8,0,41.2,18.5,41.2,41.2
	v141.5C225,206.4,206.5,224.9,183.8,224.9z"/>
<path class="st1" d="M182.1,217.1H43.9c-19.4,0-35.2-15.7-35.2-35.2V43.8c0-19.4,15.7-35.2,35.2-35.2h138.1
	c19.4,0,35.2,15.7,35.2,35.2v138.1C217.2,201.4,201.5,217.1,182.1,217.1z"/>
<g>
	<g>
		<g id="jp4N78_00000151538088444135131810000015967120936571234465_">
			<path class="st2" d="M165.1,103.2c-0.4,20.1-11,34.7-24.4,43c0.7-11.7,0.7-23.4,0.4-35.1c0.8-2.7,1.3-5.7,1.3-8.7
				c0-16-12.8-28.9-28.8-28.9c-9.2,0-17.2,4-22.5,10.4c-1.4-8.6-2.7-17.1-4.1-26c7.6-4.4,16.5-6.9,26.2-7
				C143.7,51,165.7,75.4,165.1,103.2z"/>
			<path class="st2" d="M136,144.6c0,2.5-0.9,4.2-2.4,5.4c-1.1,0.9-2.5,1.6-4.1,2.1c-29.1,10-61.3-8.7-67.1-39
				c-0.9-4.5-1.2-9.2-1.3-13.8c-0.2-13.7-0.1-27.3,0-41c0-2.4,0.2-4.7,0.3-7.6c9.4,1.1,16.1,5,20,11.1c2.3,3.6,3.6,8.1,3.7,13.2
				c0.2,7.2,0.2,14.4,0.1,21.6c0,0,0,0,0,0c-0.4,1.9-0.6,3.8-0.6,5.8c-0.1,16.3,12.6,29.2,28.8,29.2c9.3,0,17.4-4.1,22.7-10.7
				C136,129.3,136,136.9,136,144.6z"/>
		</g>
		<path class="st3" d="M73.4,19.5H69c-4.3,0-7.8,3.5-7.8,7.8v5.9c0,6.1,4.9,11,11,11h4.8c4.3,0,7.8-3.5,7.8-7.8v-5.5
			C84.8,24.6,79.7,19.5,73.4,19.5z"/>
		<g id="vw2wVO_00000031902382676832770620000013626276328990042301_">
			<path class="st2" d="M165.3,148.9c0,3.6-0.1,7.2-0.4,10.8c-2.3,23.6-18,40.7-41.8,45.5c-22.1,4.5-43.7-6-54.5-24.3
				c-0.8-1.3-0.4-3,0.8-3.9c2.8-2,5.7-4.2,8.8-5.8c3-1.5,6.5-1.4,9.6-0.1c1.6,0.7,3.1,1.8,4.4,3.1c7.8,8.5,17.5,11.1,28.5,8.4
				c11-2.7,17.8-10,20.7-20.9c1.1-4.1,3.1-7.6,6.6-10.1c6.8-4.8,12.1-10.9,15.9-18.3c0.2-0.3,0.4-0.6,0.5-0.9
				c0.1-0.1,0.2-0.1,0.3-0.1c0.1,0,0.1,0.1,0.2,0.1c0.1,0,0.1,0.1,0.1,0.2C165.1,138.2,165.3,143.6,165.3,148.9z"/>
		</g>
	</g>
</g>
</svg>
