<?xml version="1.0" encoding="utf-8"?>
<svg version="1.1" id="Layer_1" x="0px" y="0px" viewBox="0 0 225 225" style="enable-background:new 0 0 225 225;" xmlns="http://www.w3.org/2000/svg">
  <style type="text/css">
	.st0{fill:none;stroke:#000000;stroke-width:20;stroke-linecap:round;stroke-miterlimit:3;}
</style>
  <g transform="matrix(1, 0, 0, 1, 237.687469, 169.473999)">
    <path class="st2" d="M -66.014 -56.474 C -46.07 -31.541 -51.056 5.36 -75.99 24.309 C -85.962 32.288 -97.93 36.277 -111.894 36.277 L -125.856 36.277 C -129.845 36.277 -133.836 34.284 -135.828 31.291 L -190.684 -22.565 L -195.67 -18.576 C -196.667 -19.572 -196.667 -19.572 -196.667 -20.572 L -194.673 -46.502 C -194.673 -47.498 -193.674 -48.495 -191.682 -48.495 L -166.748 -46.502 C -165.751 -46.502 -165.751 -45.505 -164.752 -45.505 L -169.74 -41.516 L -119.871 7.355 L -110.895 7.355 C -94.937 7.355 -82.971 -5.61 -82.971 -20.572 C -82.971 -29.548 -87.958 -38.524 -94.937 -43.51 C -98.928 -46.502 -100.923 -50.491 -100.923 -55.478 C -100.923 -60.464 -98.928 -64.453 -94.937 -67.445 C -86.96 -72.432 -82.971 -81.408 -82.971 -91.382 C -82.971 -107.34 -95.936 -119.309 -110.895 -119.309 L -165.751 -119.309 L -165.751 -93.376 L -115.882 -43.51 L -110.895 -47.498 C -109.898 -46.502 -109.898 -46.502 -109.898 -45.505 L -110.895 -33.536 L -111.894 -20.572 C -111.894 -19.572 -112.891 -18.576 -113.887 -18.576 L -124.86 -19.572 L -139.818 -20.572 C -140.817 -20.572 -140.817 -21.568 -141.814 -21.568 L -137.824 -24.56 L -190.684 -77.418 C -193.674 -80.41 -194.673 -84.401 -194.673 -87.394 L -194.673 -135.264 C -194.673 -143.244 -187.691 -150.225 -179.713 -150.225 L -110.895 -150.225 C -78.982 -150.225 -54.048 -124.294 -54.048 -93.376 C -54.048 -79.414 -58.037 -66.449 -66.014 -56.474 Z" style="fill: rgb(0, 135, 90);"/>
  </g>
</svg>