<?xml version="1.0" encoding="utf-8"?>
<svg version="1.1" id="Calque_1" x="0px" y="0px" viewBox="0 0 86.536 32" style="enable-background:new 0 0 74 32;" xmlns="http://www.w3.org/2000/svg">
  <style type="text/css">
	.st0{fill:#777A95;}
	.st1{fill:#FDC41F;}
	.st2{fill:#00875A;}
</style>
  <g style="" transform="matrix(1.171474, 0, 0, 1.171474, -0.017147, -0.051442)">
    <path class="st1" d="M73,8.1C72,7.9,71,7.7,69.9,7.6c-0.2,0-0.5-0.1-0.7-0.3c-2-2.2-6.2-6.9-6.2-7c2.4,0.4,3.1,0.5,5.3,1.5l3,5.7 L73,8.1z"/>
    <path class="st1" d="M70,8.1c-1,0-1.7,0-1.7,0l-7.6-6.5c0.8,0,1.7,0.1,2.4,0.1l5.6,6.2H69C69.3,8.1,69.6,8.1,70,8.1z"/>
    <path class="st1" d="M68.3,8.8c0,0,0.4,0,0.9,0c-1,0.1-1.7,0.2-1.7,0.2l-8.3-5.4c0.8-0.1,1.7-0.1,2.4-0.2L68,8.9L68.3,8.8z"/>
    <path class="st2" d="M13.2,13.6c2,2.5,1.5,6.2-1,8.1c-1,0.8-2.2,1.2-3.6,1.2H7.2c-0.4,0-0.8-0.2-1-0.5L0.7,17l-0.5,0.4 c-0.1-0.1-0.1-0.1-0.1-0.2l0.2-2.6c0-0.1,0.1-0.2,0.3-0.2l0,0l2.5,0.2c0.1,0,0.1,0.1,0.2,0.1l-0.5,0.4L7.8,20h0.9 c1.6,0,2.8-1.3,2.8-2.8c0-0.9-0.5-1.8-1.2-2.3c-0.4-0.3-0.6-0.7-0.6-1.2c0-0.5,0.2-0.9,0.6-1.2c0.8-0.5,1.2-1.4,1.2-2.4 c0-1.6-1.3-2.8-2.8-2.8H3.2v2.6l5,5l0.5-0.4c0.1,0.1,0.1,0.1,0.1,0.2l-0.1,1.2l-0.1,1.3c0,0.1-0.1,0.2-0.2,0.2l0,0l-1.1-0.1 l-1.5-0.1c-0.1,0-0.1-0.1-0.2-0.1L6,16.8l-5.3-5.3c-0.3-0.3-0.4-0.7-0.4-1V5.7c0-0.8,0.7-1.5,1.5-1.5h6.9c3.2,0,5.7,2.6,5.7,5.7 C14.4,11.3,14,12.6,13.2,13.6L13.2,13.6z"/>
    <path class="st2" d="M29.4,15.9c0,0.8-0.6,1.4-1.4,1.4h-8.5c0.8,1.9,2.9,2.8,4.8,2.1c0.5-0.2,0.9-0.5,1.2-0.8 c0.5-0.6,1.4-0.7,2-0.1c0.6,0.5,0.7,1.4,0.1,2c-0.1,0.1-0.1,0.1-0.1,0.1c-1.2,1.2-2.8,1.9-4.6,1.9c-3.6,0-6.5-2.9-6.4-6.5 c0-3.6,2.9-6.5,6.5-6.4C26.5,9.5,29.4,12.4,29.4,15.9z M26.3,14.6c-0.8-1.9-2.9-2.8-4.8-2.1c-0.9,0.4-1.7,1.1-2.1,2.1H26.3z"/>
    <path class="st2" d="M44.2,10.8V21c0,0.8-0.7,1.4-1.4,1.4c-0.7,0-1.2-0.5-1.4-1.1c-2.9,2.1-6.9,1.4-8.9-1.5c-2-2.9-1.4-6.9,1.5-8.9 c2.2-1.6,5.2-1.6,7.4,0c0.1-0.8,0.8-1.2,1.6-1.1C43.7,9.7,44.2,10.2,44.2,10.8z M41.5,15.9c0-2-1.7-3.7-3.7-3.7 c-2,0-3.7,1.7-3.7,3.7s1.7,3.7,3.7,3.7l0,0C39.8,19.6,41.5,18,41.5,15.9z"/>
    <path class="st2" d="M58.9,18.4c0,2.1-1.8,3.9-3.9,3.9h-5.1c-0.8,0-1.4-0.6-1.4-1.4c0-0.8,0.6-1.4,1.4-1.4l0,0H55 c0.7,0.1,1.2-0.3,1.4-0.9c0.1-0.7-0.3-1.2-0.9-1.4c-0.2-0.1-0.4-0.1-0.5,0H50c-2.1-0.1-3.8-1.9-3.7-4.1c0.1-2,1.7-3.7,3.7-3.7H55 c0.8-0.1,1.4,0.5,1.5,1.3c0.1,0.8-0.5,1.4-1.3,1.5c-0.1,0-0.1,0-0.2,0H50c-0.7,0.1-1.1,0.7-1,1.4c0.1,0.5,0.5,0.8,0.9,0.9H55 C57.1,14.6,58.9,16.3,58.9,18.4z"/>
    <path class="st2" d="M73.7,10.8v9.6c0,3.6-3,6.5-6.6,6.5c-0.8,0-1.4-0.6-1.4-1.4c0-0.8,0.6-1.4,1.4-1.4c1.8,0,3.4-1.3,3.7-3.1 c-3,2.1-7,1.4-9.1-1.6c-0.8-1.1-1.2-2.4-1.2-3.8v-5c0-0.8,0.6-1.4,1.4-1.4c0.8,0,1.4,0.6,1.4,1.4v5c0,2.1,1.7,3.8,3.8,3.8 c2.1,0,3.8-1.7,3.8-3.8v-5c0-0.8,0.6-1.4,1.4-1.4C73.1,9.5,73.7,10.1,73.7,10.8z"/>
  </g>
</svg>